<svg width="702" height="358" viewBox="0 0 702 358" fill="none" xmlns="http://www.w3.org/2000/svg">
<g id="Frame 1">
<rect id="greenRec" x="49" y="100" width="497" height="204" rx="35" fill="#287271" fill-opacity="0.75"/>
<rect id="orangeRec" x="201" y="54" width="452" height="204" rx="35" fill="#F0955D" fill-opacity="0.75"/>
<g id="PROJECTS" filter="url(#filter0_d_0_1)">
<path d="M213.2 202V160H232.4C236.24 160 239.54 160.62 242.3 161.86C245.1 163.1 247.26 164.9 248.78 167.26C250.3 169.58 251.06 172.34 251.06 175.54C251.06 178.7 250.3 181.44 248.78 183.76C247.26 186.08 245.1 187.88 242.3 189.16C239.54 190.4 236.24 191.02 232.4 191.02H219.8L225.08 185.86V202H213.2ZM225.08 187.12L219.8 181.66H231.68C234.16 181.66 236 181.12 237.2 180.04C238.44 178.96 239.06 177.46 239.06 175.54C239.06 173.58 238.44 172.06 237.2 170.98C236 169.9 234.16 169.36 231.68 169.36H219.8L225.08 163.9V187.12ZM256.852 202V160H276.052C279.892 160 283.192 160.62 285.952 161.86C288.752 163.1 290.912 164.9 292.432 167.26C293.952 169.58 294.712 172.34 294.712 175.54C294.712 178.7 293.952 181.44 292.432 183.76C290.912 186.04 288.752 187.8 285.952 189.04C283.192 190.24 279.892 190.84 276.052 190.84H263.452L268.732 185.86V202H256.852ZM282.832 202L272.392 186.7H285.052L295.552 202H282.832ZM268.732 187.12L263.452 181.66H275.332C277.812 181.66 279.652 181.12 280.852 180.04C282.092 178.96 282.712 177.46 282.712 175.54C282.712 173.58 282.092 172.06 280.852 170.98C279.652 169.9 277.812 169.36 275.332 169.36H263.452L268.732 163.9V187.12ZM322.446 202.84C319.086 202.84 315.986 202.3 313.146 201.22C310.306 200.14 307.826 198.62 305.706 196.66C303.626 194.66 302.006 192.34 300.846 189.7C299.686 187.06 299.106 184.16 299.106 181C299.106 177.84 299.686 174.94 300.846 172.3C302.006 169.66 303.626 167.36 305.706 165.4C307.826 163.4 310.306 161.86 313.146 160.78C315.986 159.7 319.086 159.16 322.446 159.16C325.846 159.16 328.946 159.7 331.746 160.78C334.586 161.86 337.046 163.4 339.126 165.4C341.206 167.36 342.826 169.66 343.986 172.3C345.186 174.94 345.786 177.84 345.786 181C345.786 184.16 345.186 187.08 343.986 189.76C342.826 192.4 341.206 194.7 339.126 196.66C337.046 198.62 334.586 200.14 331.746 201.22C328.946 202.3 325.846 202.84 322.446 202.84ZM322.446 193C324.046 193 325.526 192.72 326.886 192.16C328.286 191.6 329.486 190.8 330.486 189.76C331.526 188.68 332.326 187.4 332.886 185.92C333.486 184.44 333.786 182.8 333.786 181C333.786 179.16 333.486 177.52 332.886 176.08C332.326 174.6 331.526 173.34 330.486 172.3C329.486 171.22 328.286 170.4 326.886 169.84C325.526 169.28 324.046 169 322.446 169C320.846 169 319.346 169.28 317.946 169.84C316.586 170.4 315.386 171.22 314.346 172.3C313.346 173.34 312.546 174.6 311.946 176.08C311.386 177.52 311.106 179.16 311.106 181C311.106 182.8 311.386 184.44 311.946 185.92C312.546 187.4 313.346 188.68 314.346 189.76C315.386 190.8 316.586 191.6 317.946 192.16C319.346 192.72 320.846 193 322.446 193ZM360.31 202.84C357.23 202.84 354.43 202.32 351.91 201.28C349.43 200.2 347.37 198.66 345.73 196.66L352.21 188.98C353.33 190.42 354.49 191.52 355.69 192.28C356.89 193 358.15 193.36 359.47 193.36C362.99 193.36 364.75 191.32 364.75 187.24V169.18H350.23V160H376.51V186.52C376.51 192 375.13 196.1 372.37 198.82C369.61 201.5 365.59 202.84 360.31 202.84ZM395.448 176.26H414.948V185.14H395.448V176.26ZM396.288 192.82H418.248V202H384.528V160H417.468V169.18H396.288V192.82ZM445.781 202.84C442.461 202.84 439.381 202.32 436.541 201.28C433.741 200.2 431.301 198.68 429.221 196.72C427.181 194.76 425.581 192.46 424.421 189.82C423.261 187.14 422.681 184.2 422.681 181C422.681 177.8 423.261 174.88 424.421 172.24C425.581 169.56 427.181 167.24 429.221 165.28C431.301 163.32 433.741 161.82 436.541 160.78C439.381 159.7 442.461 159.16 445.781 159.16C449.661 159.16 453.121 159.84 456.161 161.2C459.241 162.56 461.801 164.52 463.841 167.08L456.281 173.92C454.921 172.32 453.421 171.1 451.781 170.26C450.181 169.42 448.381 169 446.381 169C444.661 169 443.081 169.28 441.641 169.84C440.201 170.4 438.961 171.22 437.921 172.3C436.921 173.34 436.121 174.6 435.521 176.08C434.961 177.56 434.681 179.2 434.681 181C434.681 182.8 434.961 184.44 435.521 185.92C436.121 187.4 436.921 188.68 437.921 189.76C438.961 190.8 440.201 191.6 441.641 192.16C443.081 192.72 444.661 193 446.381 193C448.381 193 450.181 192.58 451.781 191.74C453.421 190.9 454.921 189.68 456.281 188.08L463.841 194.92C461.801 197.44 459.241 199.4 456.161 200.8C453.121 202.16 449.661 202.84 445.781 202.84ZM477.726 202V169.42H464.826V160H502.446V169.42H489.606V202H477.726ZM521.515 202.84C518.075 202.84 514.755 202.42 511.555 201.58C508.395 200.7 505.815 199.58 503.815 198.22L507.715 189.46C509.595 190.66 511.755 191.66 514.195 192.46C516.675 193.22 519.135 193.6 521.575 193.6C523.215 193.6 524.535 193.46 525.535 193.18C526.535 192.86 527.255 192.46 527.695 191.98C528.175 191.46 528.415 190.86 528.415 190.18C528.415 189.22 527.975 188.46 527.095 187.9C526.215 187.34 525.075 186.88 523.675 186.52C522.275 186.16 520.715 185.8 518.995 185.44C517.315 185.08 515.615 184.62 513.895 184.06C512.215 183.5 510.675 182.78 509.275 181.9C507.875 180.98 506.735 179.8 505.855 178.36C504.975 176.88 504.535 175.02 504.535 172.78C504.535 170.26 505.215 167.98 506.575 165.94C507.975 163.9 510.055 162.26 512.815 161.02C515.575 159.78 519.015 159.16 523.135 159.16C525.895 159.16 528.595 159.48 531.235 160.12C533.915 160.72 536.295 161.62 538.375 162.82L534.715 171.64C532.715 170.56 530.735 169.76 528.775 169.24C526.815 168.68 524.915 168.4 523.075 168.4C521.435 168.4 520.115 168.58 519.115 168.94C518.115 169.26 517.395 169.7 516.955 170.26C516.515 170.82 516.295 171.46 516.295 172.18C516.295 173.1 516.715 173.84 517.555 174.4C518.435 174.92 519.575 175.36 520.975 175.72C522.415 176.04 523.975 176.38 525.655 176.74C527.375 177.1 529.075 177.56 530.755 178.12C532.475 178.64 534.035 179.36 535.435 180.28C536.835 181.16 537.955 182.34 538.795 183.82C539.675 185.26 540.115 187.08 540.115 189.28C540.115 191.72 539.415 193.98 538.015 196.06C536.655 198.1 534.595 199.74 531.835 200.98C529.115 202.22 525.675 202.84 521.515 202.84Z" fill="#E9C36A"/>
</g>
<g id="list-check-solid 1">
<path id="Vector" d="M99.4393 208.633C101.143 210.175 101.282 212.812 99.7348 214.526L87.2261 228.439C86.4595 229.274 85.3783 229.778 84.2345 229.656C83.0907 229.847 81.9852 229.395 81.1751 228.439L74.2218 221.486C72.5927 220.009 72.5927 217.366 74.2218 215.738C75.8508 214.109 78.493 214.109 80.1217 215.738L83.9651 219.574L93.5465 208.943C95.0762 207.23 97.7184 207.091 99.4393 208.633ZM99.4393 236.453C101.143 237.982 101.282 240.625 99.7348 242.346L87.2261 256.252C86.4595 257.086 85.3783 257.59 84.2345 257.469C83.0907 257.66 81.9852 257.208 81.1751 256.252L74.2218 249.299C72.5927 247.821 72.5927 245.179 74.2218 243.545C75.8508 241.928 78.493 241.928 80.1217 243.545L83.9651 247.387L93.5465 236.748C95.0762 235.045 97.7184 234.906 99.4393 236.453ZM111.938 218.687C111.938 215.616 114.423 213.125 117.5 213.125H156.438C159.514 213.125 162 215.616 162 218.687C162 221.764 159.514 224.25 156.438 224.25H117.5C114.423 224.25 111.938 221.764 111.938 218.687ZM111.938 246.5C111.938 243.423 114.423 240.937 117.5 240.937H156.438C159.514 240.937 162 243.423 162 246.5C162 249.577 159.514 252.062 156.438 252.062H117.5C114.423 252.062 111.938 249.577 111.938 246.5ZM100.812 274.312C100.812 271.236 103.298 268.75 106.375 268.75H156.438C159.514 268.75 162 271.236 162 274.312C162 277.389 159.514 279.875 156.438 279.875H106.375C103.298 279.875 100.812 277.389 100.812 274.312ZM73 274.312C73 269.706 76.7356 265.969 81.3438 265.969C85.9519 265.969 89.6875 269.706 89.6875 274.312C89.6875 278.919 85.9519 282.656 81.3438 282.656C76.7356 282.656 73 278.919 73 274.312Z" fill="#F0955D" fill-opacity="0.75"/>
</g>
</g>
<defs>
<filter id="filter0_d_0_1" x="209.2" y="159.16" width="334.915" height="51.68" filterUnits="userSpaceOnUse" color-interpolation-filters="sRGB">
<feFlood flood-opacity="0" result="BackgroundImageFix"/>
<feColorMatrix in="SourceAlpha" type="matrix" values="0 0 0 0 0 0 0 0 0 0 0 0 0 0 0 0 0 0 127 0" result="hardAlpha"/>
<feOffset dy="4"/>
<feGaussianBlur stdDeviation="2"/>
<feComposite in2="hardAlpha" operator="out"/>
<feColorMatrix type="matrix" values="0 0 0 0 0 0 0 0 0 0 0 0 0 0 0 0 0 0 0.25 0"/>
<feBlend mode="normal" in2="BackgroundImageFix" result="effect1_dropShadow_0_1"/>
<feBlend mode="normal" in="SourceGraphic" in2="effect1_dropShadow_0_1" result="shape"/>
</filter>
</defs>
</svg>
