<svg width="702" height="358" viewBox="0 0 702 358" fill="none" xmlns="http://www.w3.org/2000/svg">
<g id="skills 1">
<g id="Frame 1" filter="url(#filter0_d_0_1)">
<path id="greenRec" d="M511 100H84C64.67 100 49 115.67 49 135V269C49 288.33 64.67 304 84 304H511C530.33 304 546 288.33 546 269V135C546 115.67 530.33 100 511 100Z" fill="#287271" fill-opacity="0.75"/>
<path id="orangeRec" d="M618 54H236C216.67 54 201 69.67 201 89V223C201 242.33 216.67 258 236 258H618C637.33 258 653 242.33 653 223V89C653 69.67 637.33 54 618 54Z" fill="#F0955D" fill-opacity="0.75"/>
</g>
<g id="Skills" filter="url(#filter1_d_0_1)">
<path d="M269.3 216.2C289.3 216.2 299 206.2 299 194.5C299 168.8 258.3 177.7 258.3 164.8C258.3 160.4 262 156.8 271.6 156.8C277.8 156.8 284.5 158.6 291 162.3L296 150C289.5 145.9 280.5 143.8 271.7 143.8C251.8 143.8 242.2 153.7 242.2 165.6C242.2 191.6 282.9 182.6 282.9 195.7C282.9 200 279 203.2 269.4 203.2C261 203.2 252.2 200.2 246.3 195.9L240.8 208.1C247 212.9 258.2 216.2 269.3 216.2ZM349.07 215H367.97L343.57 184L365.97 161.2H347.37L324.57 182.8V140.8H308.97V215H324.57V201.3L332.07 193.9L349.07 215ZM382.395 153.7C388.195 153.7 392.095 149.9 392.095 144.7C392.095 139.9 388.195 136.3 382.395 136.3C376.595 136.3 372.695 140.1 372.695 145C372.695 149.9 376.595 153.7 382.395 153.7ZM374.595 215H390.195V161.2H374.595V215ZM404.673 215H420.273V140.8H404.673V215ZM434.751 215H450.351V140.8H434.751V215ZM482.929 215.8C499.029 215.8 508.329 208.7 508.329 198.7C508.329 177.5 475.829 186.4 475.829 177.2C475.829 174.4 478.829 172.2 485.829 172.2C490.729 172.2 496.029 173.2 501.329 176.2L506.529 165.1C501.429 162.1 493.229 160.4 485.829 160.4C470.129 160.4 460.929 167.6 460.929 177.8C460.929 199.3 493.429 190.3 493.429 199.1C493.429 202.1 490.729 204 483.529 204C476.929 204 469.629 201.9 464.829 198.8L459.629 210C464.629 213.3 473.829 215.8 482.929 215.8Z" fill="#E9C46A"/>
</g>
</g>
<defs>
<filter id="filter0_d_0_1" x="45" y="54" width="612" height="258" filterUnits="userSpaceOnUse" color-interpolation-filters="sRGB">
<feFlood flood-opacity="0" result="BackgroundImageFix"/>
<feColorMatrix in="SourceAlpha" type="matrix" values="0 0 0 0 0 0 0 0 0 0 0 0 0 0 0 0 0 0 127 0" result="hardAlpha"/>
<feOffset dy="4"/>
<feGaussianBlur stdDeviation="2"/>
<feComposite in2="hardAlpha" operator="out"/>
<feColorMatrix type="matrix" values="0 0 0 0 0 0 0 0 0 0 0 0 0 0 0 0 0 0 0.25 0"/>
<feBlend mode="normal" in2="BackgroundImageFix" result="effect1_dropShadow_0_1"/>
<feBlend mode="normal" in="SourceGraphic" in2="effect1_dropShadow_0_1" result="shape"/>
</filter>
<filter id="filter1_d_0_1" x="236.8" y="136.3" width="275.529" height="87.9" filterUnits="userSpaceOnUse" color-interpolation-filters="sRGB">
<feFlood flood-opacity="0" result="BackgroundImageFix"/>
<feColorMatrix in="SourceAlpha" type="matrix" values="0 0 0 0 0 0 0 0 0 0 0 0 0 0 0 0 0 0 127 0" result="hardAlpha"/>
<feOffset dy="4"/>
<feGaussianBlur stdDeviation="2"/>
<feComposite in2="hardAlpha" operator="out"/>
<feColorMatrix type="matrix" values="0 0 0 0 0 0 0 0 0 0 0 0 0 0 0 0 0 0 0.25 0"/>
<feBlend mode="normal" in2="BackgroundImageFix" result="effect1_dropShadow_0_1"/>
<feBlend mode="normal" in="SourceGraphic" in2="effect1_dropShadow_0_1" result="shape"/>
</filter>
</defs>
</svg>
